<svg width="50" height="50" viewBox="0 0 50 50" fill="none" xmlns="http://www.w3.org/2000/svg">
<path d="M16.9238 41.3293C13.7385 41.3293 10.8509 40.6446 8.26094 39.2752C5.70079 37.8761 3.67649 35.956 2.18803 33.5149C0.729344 31.0441 0 28.2606 0 25.1647C0 22.0687 0.729344 19.3001 2.18803 16.8591C3.67649 14.3882 5.70079 12.4681 8.26094 11.0987C10.8509 9.69957 13.7534 9 16.9684 9C19.6774 9 22.1185 9.47631 24.2916 10.4289C26.4945 11.3815 28.3402 12.7509 29.8287 14.5371L25.5558 18.6418C23.4422 16.2008 20.4514 15.1622 17.3256 15.1622C15.3907 15.1622 13.664 15.5939 12.1458 16.4572C10.6276 17.2907 9.43682 18.4666 8.57352 19.9848C7.73998 21.503 7.32321 23.2297 7.32321 25.1647C7.32321 27.0996 7.73998 28.8263 8.57352 30.3445C9.43682 31.8627 10.6276 33.0535 12.1458 33.9168C13.664 34.7503 15.3907 35.1671 17.3256 35.1671C20.4514 35.1671 23.0711 33.9317 25.1847 31.4608L29.8287 35.7476C28.3402 37.5635 26.4945 38.9478 24.2916 39.9004C22.0887 40.853 19.6328 41.3293 16.9238 41.3293Z" fill="#FFAD01"/>
<path d="M27.7178 9.53577L34.1926 19.0024L40.6674 9.53577H49.1516L38.7473 24.4948L50 40.7934H41.4711L34.1926 30.4337L27.0033 40.7934H18.6531L29.8165 24.8073L19.3675 9.53577H27.7178Z" fill="#303030"/>
</svg>
