<svg width="15" height="13" viewBox="0 0 15 13" fill="none" xmlns="http://www.w3.org/2000/svg">
<path d="M11.5179 7.57132H10.9821C10.9039 7.57132 10.8397 7.59638 10.7897 7.64675C10.7393 7.69683 10.7143 7.761 10.7143 7.83917V10.5177C10.7143 10.886 10.5832 11.2013 10.321 11.4636C10.0587 11.7258 9.74338 11.8569 9.37505 11.8569H2.41067C2.04237 11.8569 1.72705 11.7258 1.46474 11.4636C1.20249 11.2013 1.07138 10.8861 1.07138 10.5177V3.55343C1.07138 3.18513 1.20246 2.86993 1.46474 2.60765C1.72705 2.34534 2.04237 2.21426 2.41067 2.21426H8.30347C8.38172 2.21426 8.44592 2.18908 8.49609 2.13891C8.54625 2.08869 8.57132 2.02457 8.57132 1.94638V1.41059C8.57132 1.33254 8.54625 1.26831 8.49609 1.21817C8.44592 1.16795 8.38172 1.14288 8.30347 1.14288H2.41067C1.74667 1.14288 1.17883 1.37866 0.707216 1.85019C0.235778 2.32168 0 2.88952 0 3.55352V10.5178C0 11.1818 0.235778 11.7497 0.707245 12.2211C1.17886 12.6926 1.7467 12.9285 2.4107 12.9285H9.37505C10.039 12.9285 10.6069 12.6926 11.0785 12.2211C11.5501 11.7497 11.7858 11.1818 11.7858 10.5178V7.83937C11.7858 7.76112 11.7607 7.69692 11.7104 7.64675C11.6601 7.59638 11.5959 7.57132 11.5179 7.57132Z" fill="#FFAD01"/>
<path d="M14.8411 0.230525C14.735 0.124481 14.6093 0.0715027 14.4643 0.0715027H10.1786C10.0336 0.0715027 9.90793 0.124481 9.80198 0.230525C9.69593 0.33651 9.64284 0.46208 9.64284 0.607176C9.64284 0.752272 9.69593 0.877871 9.80198 0.983915L11.2751 2.4571L5.81762 7.91472C5.76174 7.97051 5.73389 8.03472 5.73389 8.10713C5.73389 8.17981 5.76183 8.24399 5.81762 8.29978L6.77187 9.25391C6.82766 9.30971 6.89187 9.33753 6.9644 9.33753C7.03694 9.33753 7.10117 9.30974 7.15694 9.25391L12.6145 3.79638L14.0878 5.26957C14.1937 5.37561 14.3193 5.42865 14.4644 5.42865C14.6095 5.42865 14.7351 5.37561 14.8412 5.26957C14.9472 5.16355 15.0002 5.03801 15.0002 4.89292V0.607176C15.0002 0.461992 14.947 0.33651 14.8411 0.230525Z" fill="#FFAD01"/>
</svg>
