<svg width="200" height="37" viewBox="0 0 200 37" fill="none" xmlns="http://www.w3.org/2000/svg">
<path d="M19.2096 36.696C15.5941 36.696 12.3165 35.9188 9.37673 34.3644C6.47079 32.7763 4.17307 30.5969 2.48357 27.8261C0.827855 25.0215 0 21.8621 0 18.348C0 14.8338 0.827855 11.6913 2.48357 8.92056C4.17307 6.11599 6.47079 3.93654 9.37673 2.3822C12.3165 0.794065 15.611 0 19.2603 0C22.3352 0 25.106 0.54064 27.5726 1.62192C30.0731 2.7032 32.1681 4.25754 33.8576 6.28494L29.0076 10.9441C26.6085 8.17335 23.2137 6.99453 19.6658 6.99453C17.4694 6.99453 15.5096 7.48449 13.7863 8.4644C12.063 9.41052 10.7114 10.7452 9.73152 12.4685C8.7854 14.1918 8.31234 16.1516 8.31234 18.348C8.31234 20.5443 8.7854 22.5041 9.73152 24.2274C10.7114 25.9507 12.063 27.3023 13.7863 28.2822C15.5096 29.2284 17.4694 29.7014 19.6658 29.7014C23.2137 29.7014 26.1873 28.2991 28.5864 25.4946L33.8576 30.3603C32.1681 32.4215 30.0731 33.9928 27.5726 35.074C25.0722 36.1553 22.2845 36.696 19.2096 36.696Z" fill="#FFAD01"/>
<path d="M31.4617 0.608215L38.811 11.3534L46.1603 0.608215H55.7905L43.9809 17.5877L56.7535 36.0877H47.0727L38.811 24.3288L30.6507 36.0877H21.1726L33.8439 17.9425L21.9836 0.608215H31.4617Z" fill="#303030"/>
<path d="M76.5133 16.8831C74.842 16.8831 73.4615 16.3277 72.3719 15.217C71.2823 14.1062 70.7375 12.7363 70.7375 11.1073C70.7375 9.46763 71.2823 8.09773 72.3719 6.99758C73.4615 5.88685 74.842 5.33148 76.5133 5.33148C77.5183 5.33148 78.4439 5.5695 79.2902 6.04552C80.147 6.51097 80.8135 7.14567 81.2895 7.94963L79.4012 9.04449C79.1262 8.54731 78.7348 8.1612 78.227 7.88616C77.7193 7.60054 77.148 7.45774 76.5133 7.45774C75.4343 7.45774 74.5616 7.79624 73.8952 8.47326C73.2393 9.15028 72.9114 10.0283 72.9114 11.1073C72.9114 12.1757 73.2393 13.0484 73.8952 13.7254C74.5616 14.4024 75.4343 14.7409 76.5133 14.7409C77.148 14.7409 77.7193 14.6034 78.227 14.3284C78.7454 14.0428 79.1368 13.6567 79.4012 13.1701L81.2895 14.2649C80.8135 15.0689 80.1523 15.7089 79.306 16.1849C78.4598 16.6503 77.5289 16.8831 76.5133 16.8831Z" fill="#303030"/>
<path d="M88.9152 8.72714V10.6947H86.4399V16.6609H84.393V10.6947H81.8859V8.72714H88.9152Z" fill="#303030"/>
<path d="M95.3051 8.72714H97.4948L94.607 16.6609C93.803 18.893 92.4067 19.9508 90.4179 19.8344V17.9303C90.9574 17.9409 91.3805 17.8404 91.6873 17.6288C92.0047 17.4173 92.2586 17.0629 92.449 16.5657L89.2437 8.72714H91.4176L93.5438 14.0586L95.3051 8.72714Z" fill="#303030"/>
<path d="M105.114 14.7409H106.161V18.7872H104.161V16.6609H99.2425V18.7872H97.2432V14.7409H98.2111C98.666 14.0639 98.8934 13.1277 98.8934 11.9324V8.72714H105.114V14.7409ZM100.401 14.7409H103.114V10.5678H100.893V11.9324C100.893 13.0537 100.729 13.9899 100.401 14.7409Z" fill="#303030"/>
<path d="M113.185 8.72714H114.708V16.6609H112.709V12.1545L108.98 16.6609H107.456V8.72714H109.456V13.2335L113.185 8.72714Z" fill="#303030"/>
<path d="M122.946 8.72714V16.6609H120.947V14.1856H120.233L118.408 16.6609H116.044L118.027 13.9476C117.52 13.736 117.112 13.4028 116.806 12.9479C116.509 12.4825 116.361 11.9853 116.361 11.4564C116.361 10.7159 116.626 10.0759 117.155 9.53639C117.684 8.99689 118.376 8.72714 119.233 8.72714H122.946ZM119.392 10.5519C119.096 10.5519 118.847 10.6418 118.646 10.8217C118.456 10.9909 118.361 11.2236 118.361 11.5198C118.361 11.8054 118.456 12.0329 118.646 12.2021C118.847 12.3714 119.096 12.456 119.392 12.456H120.947V10.5519H119.392Z" fill="#303030"/>
<path d="M137.223 16.6609H134.732L132.574 13.0431L130.416 16.6609H127.94L131.336 10.9645L128.115 5.55365H130.59L132.574 8.88584L134.557 5.55365H137.032L133.811 10.9486L137.223 16.6609Z" fill="#FFAD01"/>
<path d="M143.827 8.72716H145.874V16.6609H143.827V15.7248C143.213 16.497 142.351 16.8831 141.24 16.8831C140.182 16.8831 139.273 16.4811 138.511 15.6772C137.76 14.8626 137.384 13.8683 137.384 12.6941C137.384 11.5199 137.76 10.5308 138.511 9.72682C139.273 8.91229 140.182 8.50502 141.24 8.50502C142.351 8.50502 143.213 8.89113 143.827 9.66335V8.72716ZM140.05 14.3125C140.463 14.7251 140.986 14.9314 141.621 14.9314C142.256 14.9314 142.779 14.7251 143.192 14.3125C143.615 13.8894 143.827 13.3499 143.827 12.6941C143.827 12.0382 143.615 11.504 143.192 11.0914C142.779 10.6683 142.256 10.4567 141.621 10.4567C140.986 10.4567 140.463 10.6683 140.05 11.0914C139.638 11.504 139.431 12.0382 139.431 12.6941C139.431 13.3499 139.638 13.8894 140.05 14.3125Z" fill="#FFAD01"/>
<path d="M151.506 16.8831C150.311 16.8831 149.311 16.4811 148.507 15.6772C147.714 14.8732 147.317 13.8788 147.317 12.6941C147.317 11.5093 147.714 10.5149 148.507 9.71095C149.311 8.907 150.311 8.50502 151.506 8.50502C152.278 8.50502 152.982 8.69014 153.617 9.06038C154.251 9.43062 154.733 9.92781 155.061 10.5519L153.299 11.5833C153.141 11.2554 152.897 10.9962 152.569 10.8058C152.252 10.6154 151.892 10.5202 151.49 10.5202C150.877 10.5202 150.369 10.7265 149.967 11.139C149.565 11.541 149.364 12.0594 149.364 12.6941C149.364 13.3182 149.565 13.8365 149.967 14.2491C150.369 14.6511 150.877 14.852 151.49 14.852C151.903 14.852 152.268 14.7621 152.585 14.5823C152.913 14.3919 153.156 14.1327 153.315 13.8048L155.092 14.8203C154.743 15.4444 154.251 15.9469 153.617 16.3277C152.982 16.698 152.278 16.8831 151.506 16.8831Z" fill="#FFAD01"/>
<path d="M157.781 13.535C158.056 14.5294 158.801 15.0266 160.018 15.0266C160.801 15.0266 161.393 14.7621 161.795 14.2332L163.445 15.1853C162.662 16.3171 161.509 16.8831 159.986 16.8831C158.674 16.8831 157.622 16.4864 156.828 15.693C156.035 14.8996 155.638 13.9 155.638 12.6941C155.638 11.4987 156.03 10.5043 156.813 9.71095C157.595 8.907 158.6 8.50502 159.827 8.50502C160.991 8.50502 161.948 8.907 162.699 9.71095C163.461 10.5149 163.842 11.5093 163.842 12.6941C163.842 12.9585 163.815 13.2388 163.763 13.535H157.781ZM157.749 11.9483H161.795C161.679 11.4088 161.435 11.0068 161.065 10.7423C160.705 10.4779 160.293 10.3457 159.827 10.3457C159.277 10.3457 158.822 10.4885 158.463 10.7741C158.103 11.0491 157.865 11.4405 157.749 11.9483Z" fill="#FFAD01"/>
<path d="M170.475 8.72716H172.522V16.6609H170.475V13.6461H167.318V16.6609H165.271V8.72716H167.318V11.7261H170.475V8.72716Z" fill="#FFAD01"/>
<path d="M181.157 15.6772C180.343 16.4811 179.348 16.8831 178.174 16.8831C177 16.8831 176.006 16.4811 175.191 15.6772C174.387 14.8626 173.985 13.8683 173.985 12.6941C173.985 11.5199 174.387 10.5308 175.191 9.72682C176.006 8.91229 177 8.50502 178.174 8.50502C179.348 8.50502 180.343 8.91229 181.157 9.72682C181.972 10.5308 182.379 11.5199 182.379 12.6941C182.379 13.8683 181.972 14.8626 181.157 15.6772ZM176.635 14.2649C177.048 14.6775 177.561 14.8838 178.174 14.8838C178.788 14.8838 179.301 14.6775 179.713 14.2649C180.126 13.8524 180.332 13.3288 180.332 12.6941C180.332 12.0594 180.126 11.5357 179.713 11.1232C179.301 10.7106 178.788 10.5043 178.174 10.5043C177.561 10.5043 177.048 10.7106 176.635 11.1232C176.233 11.5357 176.032 12.0594 176.032 12.6941C176.032 13.3288 176.233 13.8524 176.635 14.2649Z" fill="#FFAD01"/>
<path d="M189.531 12.5988C190.272 12.9585 190.642 13.5615 190.642 14.4078C190.642 15.0742 190.41 15.619 189.944 16.0421C189.489 16.4547 188.839 16.6609 187.992 16.6609H183.819V8.72716H187.675C188.511 8.72716 189.156 8.93344 189.611 9.346C190.076 9.75855 190.309 10.2981 190.309 10.9645C190.309 11.6627 190.05 12.2074 189.531 12.5988ZM187.485 10.4091H185.739V11.8372H187.485C188.066 11.8372 188.357 11.5992 188.357 11.1232C188.357 10.6471 188.066 10.4091 187.485 10.4091ZM187.754 14.9314C188.347 14.9314 188.643 14.6775 188.643 14.1697C188.643 13.9476 188.564 13.773 188.405 13.6461C188.246 13.5192 188.029 13.4557 187.754 13.4557H185.739V14.9314H187.754Z" fill="#FFAD01"/>
<path d="M197.953 8.72716H200V16.6609H197.953V15.7248C197.34 16.497 196.477 16.8831 195.367 16.8831C194.309 16.8831 193.399 16.4811 192.637 15.6772C191.886 14.8626 191.511 13.8683 191.511 12.6941C191.511 11.5199 191.886 10.5308 192.637 9.72682C193.399 8.91229 194.309 8.50502 195.367 8.50502C196.477 8.50502 197.34 8.89113 197.953 9.66335V8.72716ZM194.177 14.3125C194.589 14.7251 195.113 14.9314 195.747 14.9314C196.382 14.9314 196.906 14.7251 197.318 14.3125C197.742 13.8894 197.953 13.3499 197.953 12.6941C197.953 12.0382 197.742 11.504 197.318 11.0914C196.906 10.6683 196.382 10.4567 195.747 10.4567C195.113 10.4567 194.589 10.6683 194.177 11.0914C193.764 11.504 193.558 12.0382 193.558 12.6941C193.558 13.3499 193.764 13.8894 194.177 14.3125Z" fill="#FFAD01"/>
<path d="M75.545 31H74.384L72.539 28.921V31H71.567V26.5H72.539V28.489L74.285 26.5H75.473L73.493 28.705L75.545 31ZM79.9968 26.5V31H79.0248V27.436H77.5218V29.11C77.5218 29.824 77.3658 30.331 77.0538 30.631C76.7418 30.931 76.2978 31.054 75.7218 31V30.091C75.9978 30.139 76.2048 30.082 76.3428 29.92C76.4808 29.758 76.5498 29.473 76.5498 29.065V26.5H79.9968ZM84.3875 26.5H85.1345V31H84.1805V28.138L81.8765 31H81.1295V26.5H82.0835V29.353L84.3875 26.5ZM87.0273 29.164C87.0993 29.506 87.2643 29.77 87.5223 29.956C87.7803 30.136 88.0953 30.226 88.4673 30.226C88.9833 30.226 89.3703 30.04 89.6283 29.668L90.4293 30.136C89.9853 30.79 89.3283 31.117 88.4583 31.117C87.7263 31.117 87.1353 30.895 86.6853 30.451C86.2353 30.001 86.0103 29.434 86.0103 28.75C86.0103 28.078 86.2323 27.517 86.6763 27.067C87.1203 26.611 87.6903 26.383 88.3863 26.383C89.0463 26.383 89.5863 26.614 90.0063 27.076C90.4323 27.538 90.6453 28.099 90.6453 28.759C90.6453 28.861 90.6333 28.996 90.6093 29.164H87.0273ZM87.0183 28.372H89.6643C89.5983 28.006 89.4453 27.73 89.2053 27.544C88.9713 27.358 88.6953 27.265 88.3773 27.265C88.0173 27.265 87.7173 27.364 87.4773 27.562C87.2373 27.76 87.0843 28.03 87.0183 28.372ZM94.5336 26.5H95.5056V31H94.5336V29.209H92.4726V31H91.5006V26.5H92.4726V28.291H94.5336V26.5ZM100.071 26.5V27.436H98.6044V31H97.6324V27.436H96.1564V26.5H100.071ZM102.691 28.03C103.171 28.03 103.564 28.168 103.87 28.444C104.176 28.714 104.329 29.071 104.329 29.515C104.329 29.953 104.176 30.31 103.87 30.586C103.564 30.862 103.171 31 102.691 31H100.729V26.5H101.701V28.03H102.691ZM104.869 26.5H105.841V31H104.869V26.5ZM102.7 30.127C102.892 30.127 103.051 30.07 103.177 29.956C103.309 29.842 103.375 29.695 103.375 29.515C103.375 29.329 103.309 29.182 103.177 29.074C103.051 28.96 102.892 28.903 102.7 28.903H101.701V30.127H102.7ZM112.333 28.687C112.777 28.891 112.999 29.236 112.999 29.722C112.999 30.1 112.87 30.409 112.612 30.649C112.36 30.883 111.997 31 111.523 31H109.219V26.5H111.343C111.805 26.5 112.162 26.617 112.414 26.851C112.672 27.079 112.801 27.376 112.801 27.742C112.801 28.168 112.645 28.483 112.333 28.687ZM111.271 27.328H110.146V28.327H111.271C111.667 28.327 111.865 28.159 111.865 27.823C111.865 27.493 111.667 27.328 111.271 27.328ZM111.433 30.154C111.841 30.154 112.045 29.977 112.045 29.623C112.045 29.467 111.991 29.347 111.883 29.263C111.775 29.173 111.625 29.128 111.433 29.128H110.146V30.154H111.433ZM117.354 26.5H118.326V31H117.354V30.352C116.988 30.862 116.463 31.117 115.779 31.117C115.161 31.117 114.633 30.889 114.195 30.433C113.757 29.971 113.538 29.41 113.538 28.75C113.538 28.084 113.757 27.523 114.195 27.067C114.633 26.611 115.161 26.383 115.779 26.383C116.463 26.383 116.988 26.635 117.354 27.139V26.5ZM114.915 29.785C115.185 30.055 115.524 30.19 115.932 30.19C116.34 30.19 116.679 30.055 116.949 29.785C117.219 29.509 117.354 29.164 117.354 28.75C117.354 28.336 117.219 27.994 116.949 27.724C116.679 27.448 116.34 27.31 115.932 27.31C115.524 27.31 115.185 27.448 114.915 27.724C114.645 27.994 114.51 28.336 114.51 28.75C114.51 29.164 114.645 29.509 114.915 29.785ZM124.787 26.5H125.759V31H119.459V26.5H120.431V30.082H122.123V26.5H123.095V30.082H124.787V26.5ZM127.65 29.164C127.722 29.506 127.887 29.77 128.145 29.956C128.403 30.136 128.718 30.226 129.09 30.226C129.606 30.226 129.993 30.04 130.251 29.668L131.052 30.136C130.608 30.79 129.951 31.117 129.081 31.117C128.349 31.117 127.758 30.895 127.308 30.451C126.858 30.001 126.633 29.434 126.633 28.75C126.633 28.078 126.855 27.517 127.299 27.067C127.743 26.611 128.313 26.383 129.009 26.383C129.669 26.383 130.209 26.614 130.629 27.076C131.055 27.538 131.268 28.099 131.268 28.759C131.268 28.861 131.256 28.996 131.232 29.164H127.65ZM127.641 28.372H130.287C130.221 28.006 130.068 27.73 129.828 27.544C129.594 27.358 129.318 27.265 129 27.265C128.64 27.265 128.34 27.364 128.1 27.562C127.86 27.76 127.707 28.03 127.641 28.372ZM136.714 26.5V31H135.769V28.039L134.473 30.1H134.356L133.069 28.048V31H132.124V26.5H133.114L134.419 28.579L135.724 26.5H136.714ZM140.87 26.5H141.905L140.177 31.144C139.967 31.714 139.673 32.14 139.295 32.422C138.917 32.704 138.479 32.83 137.981 32.8V31.891C138.287 31.909 138.533 31.846 138.719 31.702C138.911 31.564 139.064 31.339 139.178 31.027L139.205 30.964L137.315 26.5H138.35L139.718 29.776L140.87 26.5ZM146.85 31.117C146.16 31.117 145.596 30.895 145.158 30.451C144.726 30.001 144.51 29.428 144.51 28.732C144.51 27.97 144.624 27.382 144.852 26.968C145.08 26.548 145.542 26.167 146.238 25.825C146.352 25.771 146.52 25.693 146.742 25.591C146.97 25.489 147.126 25.417 147.21 25.375C147.294 25.327 147.399 25.261 147.525 25.177C147.651 25.087 147.744 24.994 147.804 24.898C147.864 24.796 147.912 24.676 147.948 24.538L148.74 24.997C148.716 25.129 148.677 25.252 148.623 25.366C148.569 25.474 148.491 25.576 148.389 25.672C148.287 25.768 148.197 25.846 148.119 25.906C148.047 25.966 147.924 26.038 147.75 26.122C147.576 26.206 147.447 26.266 147.363 26.302C147.285 26.338 147.135 26.401 146.913 26.491C146.517 26.647 146.226 26.809 146.04 26.977C145.86 27.139 145.734 27.343 145.662 27.589C146.022 27.181 146.511 26.977 147.129 26.977C147.657 26.977 148.116 27.166 148.506 27.544C148.902 27.922 149.1 28.411 149.1 29.011C149.1 29.623 148.89 30.127 148.47 30.523C148.056 30.919 147.516 31.117 146.85 31.117ZM146.841 30.208C147.219 30.208 147.528 30.097 147.768 29.875C148.008 29.647 148.128 29.359 148.128 29.011C148.128 28.657 148.008 28.366 147.768 28.138C147.534 27.91 147.228 27.796 146.85 27.796C146.514 27.796 146.211 27.904 145.941 28.12C145.671 28.33 145.536 28.612 145.536 28.966C145.536 29.326 145.662 29.623 145.914 29.857C146.166 30.091 146.475 30.208 146.841 30.208ZM153.127 26.5H153.874V31H152.92V28.138L150.616 31H149.869V26.5H150.823V29.353L153.127 26.5ZM157.531 28.696C158.011 28.912 158.251 29.269 158.251 29.767C158.251 30.151 158.095 30.472 157.783 30.73C157.471 30.988 157.036 31.117 156.478 31.117C155.572 31.117 154.96 30.757 154.642 30.037L155.434 29.569C155.596 30.019 155.947 30.244 156.487 30.244C156.739 30.244 156.937 30.193 157.081 30.091C157.225 29.983 157.297 29.842 157.297 29.668C157.297 29.512 157.24 29.389 157.126 29.299C157.012 29.203 156.853 29.155 156.649 29.155H156.01V28.3H156.487C156.685 28.3 156.838 28.255 156.946 28.165C157.06 28.069 157.117 27.94 157.117 27.778C157.117 27.622 157.054 27.496 156.928 27.4C156.802 27.298 156.634 27.247 156.424 27.247C155.974 27.247 155.662 27.445 155.488 27.841L154.696 27.391C155.032 26.719 155.602 26.383 156.406 26.383C156.91 26.383 157.309 26.512 157.603 26.77C157.903 27.022 158.053 27.331 158.053 27.697C158.053 28.147 157.879 28.48 157.531 28.696ZM162.078 26.5H163.05V31H162.078V29.209H160.017V31H159.045V26.5H160.017V28.291H162.078V26.5ZM164.942 29.164C165.014 29.506 165.179 29.77 165.437 29.956C165.695 30.136 166.01 30.226 166.382 30.226C166.898 30.226 167.285 30.04 167.543 29.668L168.344 30.136C167.9 30.79 167.243 31.117 166.373 31.117C165.641 31.117 165.05 30.895 164.6 30.451C164.15 30.001 163.925 29.434 163.925 28.75C163.925 28.078 164.147 27.517 164.591 27.067C165.035 26.611 165.605 26.383 166.301 26.383C166.961 26.383 167.501 26.614 167.921 27.076C168.347 27.538 168.56 28.099 168.56 28.759C168.56 28.861 168.548 28.996 168.524 29.164H164.942ZM164.933 28.372H167.579C167.513 28.006 167.36 27.73 167.12 27.544C166.886 27.358 166.61 27.265 166.292 27.265C165.932 27.265 165.632 27.364 165.392 27.562C165.152 27.76 164.999 28.03 164.933 28.372ZM171.513 31.117C170.835 31.117 170.268 30.889 169.812 30.433C169.362 29.977 169.137 29.416 169.137 28.75C169.137 28.078 169.362 27.517 169.812 27.067C170.268 26.611 170.835 26.383 171.513 26.383C171.951 26.383 172.35 26.488 172.71 26.698C173.07 26.908 173.34 27.19 173.52 27.544L172.683 28.03C172.581 27.814 172.425 27.646 172.215 27.526C172.011 27.4 171.774 27.337 171.504 27.337C171.108 27.337 170.775 27.472 170.505 27.742C170.241 28.012 170.109 28.348 170.109 28.75C170.109 29.152 170.241 29.488 170.505 29.758C170.775 30.028 171.108 30.163 171.504 30.163C171.768 30.163 172.005 30.1 172.215 29.974C172.431 29.848 172.593 29.68 172.701 29.47L173.538 29.947C173.346 30.307 173.07 30.592 172.71 30.802C172.35 31.012 171.951 31.117 171.513 31.117ZM177.124 26.5H178.159L176.431 31.144C176.221 31.714 175.927 32.14 175.549 32.422C175.171 32.704 174.733 32.83 174.235 32.8V31.891C174.541 31.909 174.787 31.846 174.973 31.702C175.165 31.564 175.318 31.339 175.432 31.027L175.459 30.964L173.569 26.5H174.604L175.972 29.776L177.124 26.5Z" fill="#303030"/>
</svg>
