<svg width="20" height="20" viewBox="0 0 20 20" fill="none" xmlns="http://www.w3.org/2000/svg">
<g clip-path="url(#clip0)">
<path d="M9.99985 19.9199H9.99588C8.43552 19.9193 6.88843 19.5509 5.50201 18.8521L1.22833 19.8242C0.96756 19.8834 0.694427 19.8051 0.504608 19.6167C0.314789 19.4283 0.23468 19.1557 0.292053 18.8945L1.21811 14.6852C0.422516 13.2159 0.00244141 11.6068 0.000152588 10.0111C0 10.0056 0 10.0002 0 9.99481C0.00106812 7.35062 1.04675 4.86038 2.94418 2.98294C4.83734 1.10977 7.34299 0.078125 9.99969 0.078125C12.6624 0.0791931 15.164 1.11176 17.0447 2.98538C18.9514 4.8851 20.0009 7.37732 20 10.0027C19.9992 11.9868 19.4043 13.9044 18.2796 15.5479C18.0359 15.9041 17.5497 15.9952 17.1936 15.7515C16.8376 15.5078 16.7464 15.0217 16.9901 14.6655C17.9362 13.2828 18.4367 11.6702 18.4375 10.0021C18.4383 7.79526 17.552 5.69641 15.9419 4.09225C14.3561 2.51221 12.2456 1.64154 9.99939 1.64062C5.35416 1.64062 1.57227 5.38055 1.5625 9.98077C1.5625 9.98581 1.56265 9.99069 1.56265 9.99557C1.56204 11.4195 1.96259 12.8633 2.72079 14.1708C2.81891 14.3401 2.85004 14.5398 2.80792 14.7307L2.08267 18.0273L5.43579 17.2646C5.62088 17.2226 5.81497 17.2493 5.9819 17.3398C7.20703 18.0049 8.59512 18.3568 9.99619 18.3574H9.99969C11.5233 18.3574 13.0196 17.9454 14.3266 17.1661C14.6971 16.945 15.1767 17.0663 15.3976 17.437C15.6186 17.8076 15.4974 18.287 15.1268 18.5081C13.5779 19.4316 11.805 19.9199 9.99969 19.9199H9.99985ZM7.79343 6.02417C7.62207 5.64453 7.44171 5.63156 7.27875 5.625H6.84036C6.68777 5.625 6.43997 5.68207 6.23047 5.91019C6.02081 6.13831 5.42984 6.68976 5.42984 7.81143C5.42984 8.93311 6.24954 10.0171 6.36383 10.1694C6.47827 10.3214 7.94632 12.6967 10.2711 13.6105C12.2034 14.37 12.5966 14.2189 13.0159 14.1808C13.4354 14.1429 14.3694 13.6295 14.5598 13.0971C14.7505 12.5648 14.7505 12.1086 14.6933 12.0132C14.6362 11.9183 14.4836 11.8613 14.2549 11.7473C14.026 11.6333 12.905 11.0722 12.6953 10.9962C12.4857 10.9203 12.3332 10.8823 12.1806 11.1105C12.028 11.3385 11.5788 11.8657 11.4453 12.0177C11.312 12.1701 11.1784 12.189 10.9497 12.075C10.721 11.9606 9.99176 11.7157 9.11789 10.9392C8.43781 10.3348 7.966 9.56421 7.83249 9.33594C7.69897 9.10797 7.81815 8.98437 7.93289 8.8707C8.03558 8.76862 8.17459 8.629 8.28903 8.49594C8.40317 8.36288 8.43582 8.26782 8.51196 8.11569C8.58826 7.96356 8.55011 7.83051 8.49304 7.71637C8.43582 7.60239 7.99667 6.47491 7.79327 6.02417" fill="white"/>
</g>
<defs>
<clipPath id="clip0">
<rect width="20" height="20" fill="white"/>
</clipPath>
</defs>
</svg>
